<svg width="145" height="144" viewBox="0 0 145 144" fill="none" xmlns="http://www.w3.org/2000/svg">
<g clip-path="url(#clip0_6899_3706)">
<path d="M144.517 72.2581H108.388L72.258 144.518L144.517 72.2581Z" fill="#E188DD"/>
<path d="M34.4164 72.2581H-0.000510337L72.2589 144.518L34.4164 72.2581Z" fill="#FFC1F8"/>
<path d="M144.517 72.2589L72.258 -0.000549316L108.388 72.2589H144.517Z" fill="#39C3FF"/>
<path d="M72.2589 -0.000366211L34.4164 72.2591H-0.000510337L72.2589 -0.000366211Z" fill="#84B6EC"/>
<path d="M108.388 72.2581H34.416L72.2585 144.518L108.388 72.2581Z" fill="#EBA1E8"/>
<path d="M72.2585 -0.000366211L108.388 72.2591H34.416L72.2585 -0.000366211Z" fill="#01A7F0"/>
<path d="M144.517 72.2535L96.3396 48.1719L108.388 72.2535H144.517Z" fill="#0955AE" fill-opacity="0.1"/>
<path d="M101.171 57.8069L50.7827 41.001L34.416 72.2558H108.388L101.171 57.8069Z" fill="#0955AE" fill-opacity="0.1"/>
<path d="M44.8561 52.3149L34.4183 72.2535H0.00136674L24.0976 48.1719L44.8561 52.3149Z" fill="#0955AE" fill-opacity="0.1"/>
<path d="M144.517 72.2581L96.3396 96.3397L72.258 144.518L144.517 72.2581Z" fill="#0955AE" fill-opacity="0.1"/>
<path d="M101.16 86.7029L72.2621 144.513L50.7863 103.494L101.16 86.7029Z" fill="#0955AE" fill-opacity="0.1"/>
<path d="M44.8542 92.1813L72.2589 144.517L24.0957 96.3388L44.8542 92.1813Z" fill="#0955AE" fill-opacity="0.1"/>
</g>
<defs>
<clipPath id="clip0_6899_3706">
<rect width="144" height="144" fill="white" transform="matrix(0 1 -1 0 144.517 0)"/>
</clipPath>
</defs>
</svg>
